<svg xmlns="http://www.w3.org/2000/svg" viewBox="0 0 512 512" role="img" aria-label="SessionDex icon">
  <defs>
    <linearGradient id="background" x1="76" y1="48" x2="436" y2="464" gradientUnits="userSpaceOnUse">
      <stop stop-color="#0f172a" />
      <stop offset="0.45" stop-color="#1d4f75" />
      <stop offset="1" stop-color="#1d4ed8" />
    </linearGradient>
    <filter id="shadow" x="58" y="124" width="396" height="288" filterUnits="userSpaceOnUse" color-interpolation-filters="sRGB">
      <feDropShadow dx="0" dy="16" stdDeviation="12" flood-color="#020617" flood-opacity="0.28" />
    </filter>
  </defs>

  <rect width="512" height="512" rx="112" fill="url(#background)" />

  <g filter="url(#shadow)">
    <rect x="126" y="110" width="270" height="158" rx="31" fill="#ffffff" fill-opacity="0.28" />
    <rect x="106" y="140" width="300" height="174" rx="32" fill="#ffffff" fill-opacity="0.55" />
    <rect x="82" y="170" width="348" height="202" rx="46" fill="#f8fafc" />

    <path d="M150 243L185 267L150 291" fill="none" stroke="#0f172a" stroke-width="24" stroke-linecap="round" stroke-linejoin="round" />
    <rect x="210" y="264" width="120" height="18" rx="9" fill="#14b8a6" />
    <rect x="214" y="304" width="85" height="10" rx="5" fill="#64748b" />

    <rect x="114" y="324" width="55" height="13" rx="6.5" fill="#cbd5e1" />
    <rect x="187" y="324" width="55" height="13" rx="6.5" fill="#cbd5e1" />
    <rect x="260" y="324" width="55" height="13" rx="6.5" fill="#cbd5e1" />
    <rect x="116" y="150" width="105" height="45" rx="16" fill="#e2e8f0" />
  </g>
</svg>
